<?xml version="1.0" encoding="iso-8859-1"?>
<!-- Generator: Adobe Illustrator 17.1.0, SVG Export Plug-In . SVG Version: 6.00 Build 0)  -->
<!DOCTYPE svg PUBLIC "-//W3C//DTD SVG 1.1//EN" "http://www.w3.org/Graphics/SVG/1.1/DTD/svg11.dtd">
<svg version="1.1" id="Capa_1" xmlns="http://www.w3.org/2000/svg" xmlns:xlink="http://www.w3.org/1999/xlink" x="0px" y="0px" viewBox="0 0 246.683 246.683" style="enable-background:new 0 0 246.683 246.683;" xml:space="preserve">
    <path style="fill:#777777;" d="M104.991,0.265H50.479c-4.142,0-7.5,3.358-7.5,7.5v95.553c0,4.142,3.358,7.5,7.5,7.5h54.512c4.142,0,7.5-3.358,7.5-7.5
    V7.765C112.491,3.623,109.133,0.265,104.991,0.265z M89.923,85.88H65.547V25.204h24.376V85.88z M140.163,32.369
    c-2.929-2.929-2.929-7.678,0-10.606l19.565-19.565C161.136,0.79,163.043,0,165.032,0c0.043,0.002,0.069,0,0.104,0
    c0.035,0,0.07,0,0.105,0h7.568c4.143,0,7.5,3.358,7.5,7.5v80.75h12.119c4.143,0,7.5,3.358,7.5,7.5v7.568c0,4.142-3.357,7.5-7.5,7.5
    h-46.807c-4.143,0-7.5-3.358-7.5-7.5V95.75c0-4.142,3.357-7.5,7.5-7.5h12.119V36.1l-1.62,1.621
    c-1.407,1.407-3.314,2.197-5.304,2.197s-3.896-0.79-5.304-2.197L140.163,32.369z M196.204,136.13h-54.512
    c-4.143,0-7.5,3.358-7.5,7.5v95.553c0,4.142,3.357,7.5,7.5,7.5h54.512c4.143,0,7.5-3.358,7.5-7.5V143.63
    C203.704,139.488,200.347,136.13,196.204,136.13z M181.137,221.745H156.76v-60.676h24.377V221.745z M108.717,231.615v7.568
    c0,4.142-3.358,7.5-7.5,7.5H54.41c-4.142,0-7.5-3.358-7.5-7.5v-7.568c0-4.142,3.358-7.5,7.5-7.5h12.119v-52.151l-1.621,1.621
    c-1.406,1.407-3.314,2.197-5.303,2.197c-1.989,0-3.897-0.791-5.304-2.197l-5.351-5.352c-2.929-2.929-2.928-7.678,0-10.606
    l19.565-19.565c1.407-1.407,3.314-2.197,5.303-2.197c0.035,0,0.07,0,0.104,0c0.035,0,0.07,0,0.105,0h7.568
    c4.142,0,7.5,3.358,7.5,7.5v80.75h12.119C105.359,224.115,108.717,227.473,108.717,231.615z" />
    <g></g>
    <g></g>
    <g></g>
    <g></g>
    <g></g>
    <g></g>
    <g></g>
    <g></g>
    <g></g>
    <g></g>
    <g></g>
    <g></g>
    <g></g>
    <g></g>
    <g></g>
</svg>
