<?xml version="1.0" encoding="iso-8859-1"?>
<!-- Generator: Adobe Illustrator 19.0.0, SVG Export Plug-In . SVG Version: 6.00 Build 0)  -->
<svg version="1.1" id="Capa_1" xmlns="http://www.w3.org/2000/svg" xmlns:xlink="http://www.w3.org/1999/xlink" x="0px" y="0px" viewBox="0 0 504.986 504.986" style="enable-background:new 0 0 504.986 504.986;" xml:space="preserve">
    <g>
        <g>
            <path style="fill:#777777;" d="M361.206,129.753H143.781c-7.715,0-14.027,6.312-14.027,14.027v217.425c0,7.715,6.312,14.027,14.027,14.027h217.425
            c7.715,0,14.027-6.312,14.027-14.027V143.781C375.233,136.066,368.921,129.753,361.206,129.753z M347.178,347.178h-189.37v-52.603
            h28.055c7.715,0,14.027-6.312,14.027-14.027c0-7.715-6.312-14.027-14.027-14.027h-28.055v-28.055h56.11
            c7.715,0,14.027-6.312,14.027-14.027c0-7.715-6.312-14.027-14.027-14.027h-56.11v-52.603h189.37V347.178z" />
        </g>
    </g>
    <g>
        <g>
            <path style="fill:#777777;" d="M504.986,216.022c0-7.715-6.312-14.027-14.027-14.027h-44.888v-44.186h44.888c7.715,0,14.027-6.312,14.027-14.027
            s-6.312-14.027-14.027-14.027h-44.888V99.595c0-22.444-18.236-40.679-40.679-40.679h-30.159V14.027
            C375.233,6.312,368.921,0,361.206,0c-7.715,0-14.027,6.312-14.027,14.027v44.888H302.29V14.027C302.29,6.312,295.978,0,288.263,0
            c-7.715,0-14.027,6.312-14.027,14.027v44.888h-44.888V14.027C229.348,6.312,223.036,0,215.321,0
            c-7.715,0-14.027,6.312-14.027,14.027v44.888h-43.485V14.027C157.808,6.312,151.496,0,143.781,0s-14.027,6.312-14.027,14.027
            v44.888H99.595c-22.444,0-40.679,18.236-40.679,40.679v30.159H14.027C6.312,129.753,0,136.066,0,143.781
            s6.312,14.027,14.027,14.027h44.888v44.888H14.027C6.312,202.696,0,209.008,0,216.723c0,7.715,6.312,14.027,14.027,14.027h44.888
            v44.888H14.027C6.312,275.638,0,281.951,0,289.666c0,7.715,6.312,14.027,14.027,14.027h44.888v43.485H14.027
            C6.312,347.178,0,353.49,0,361.206c0,7.715,6.312,14.027,14.027,14.027h44.888v30.159c0,22.444,18.236,40.679,40.679,40.679
            h30.159v44.888c0,7.715,6.312,14.027,14.027,14.027s14.027-6.312,14.027-14.027v-44.888h44.888v44.888
            c0,7.715,6.312,14.027,14.027,14.027c7.715,0,14.027-6.312,14.027-14.027v-44.888h44.888v44.888
            c0,7.715,6.312,14.027,14.027,14.027c7.715,0,14.027-6.312,14.027-14.027v-44.888h43.485v44.888
            c0,7.715,6.312,14.027,14.027,14.027c7.715,0,14.027-6.312,14.027-14.027v-44.888h30.159c22.444,0,40.679-18.236,40.679-40.679
            v-30.159h44.888c7.715,0,14.027-6.312,14.027-14.027c0-7.715-6.312-14.027-14.027-14.027h-44.888V302.29h44.888
            c7.715,0,14.027-6.312,14.027-14.027c0-7.715-6.312-14.027-14.027-14.027h-44.888v-44.888h44.888v0.701
            C498.674,230.049,504.986,223.737,504.986,216.022z M418.718,405.392h-0.701c0,7.014-5.611,12.625-12.625,12.625H99.595
            c-7.014,0-12.625-5.611-12.625-12.625V99.595c0-7.014,5.611-12.625,12.625-12.625h306.499c7.014,0,12.625,5.611,12.625,12.625
            V405.392z" />
        </g>
    </g>
    <g></g>
    <g></g>
    <g></g>
    <g></g>
    <g></g>
    <g></g>
    <g></g>
    <g></g>
    <g></g>
    <g></g>
    <g></g>
    <g></g>
    <g></g>
    <g></g>
    <g></g>
</svg>
